<?xml version="1.0" encoding="UTF-8"?>
<svg width="49px" height="62px" viewBox="0 0 49 62" version="1.1" xmlns="http://www.w3.org/2000/svg" xmlns:xlink="http://www.w3.org/1999/xlink">
    <title>Combined Shape</title>
    <g id="Symbols" stroke="none" stroke-width="1" fill="none" fill-rule="evenodd">
        <g id="benefits-bar" transform="translate(-652.000000, 1.000000)" fill="#99CC33" stroke="#FFFFFF" stroke-width="0.6">
            <g id="Group-7" transform="translate(70.000000, -0.000000)">
                <g id="Live-Chat" transform="translate(569.000000, 0.000000)">
                    <path d="M40.2340261,0 C41.7305124,0 43.1386453,0.649825282 43.9101347,1.69545971 C43.9635743,1.76813754 44.0139856,1.84241856 44.0608343,1.9179465 C44.5100831,1.71950752 45.0165122,1.61458782 45.5646241,1.61458782 C47.2620433,1.61458782 48.973713,2.61212663 49.7273892,4.04074471 C49.8558223,4.28407293 49.9530823,4.53470455 50.0191693,4.78889882 C50.1508088,4.77340134 50.2842296,4.76556354 50.4196099,4.76556354 C52.1791971,4.76556354 54.041032,6.15338941 54.6589717,7.92491145 C54.8191123,8.38413557 54.8869805,8.84264716 54.867386,9.2858394 C56.6531586,9.6082582 57.9900388,11.3366723 58.304976,13.01325 C58.4408907,13.7371782 58.3922607,14.4165734 58.1792149,15.014206 C59.5233984,15.7199647 60.3321174,17.3210145 60.3885852,18.8821628 C60.4251023,19.9025025 60.1580825,20.7887088 59.6550379,21.4597318 C60.3738003,22.1667374 60.7979324,23.2218128 60.7979324,24.4808493 C60.7979324,25.8453399 60.2325416,27.267189 59.1568029,28.0579166 C59.5071884,28.7116608 59.6525441,29.5050604 59.5526121,30.3800445 C59.3673549,32.0065671 58.3071136,33.679226 56.7415121,34.2136217 C56.8437598,34.7444549 56.819712,35.3180397 56.6597495,35.9130004 C56.2930222,37.2752132 55.1507892,38.6749922 53.6821102,39.185056 L61.2427278,52.4863952 C61.4669959,52.8818481 61.4377823,53.3717109 61.1675562,53.7351 C60.8975081,54.1002705 60.4384622,54.2712771 59.9950918,54.1733046 L52.7697044,52.5540853 L50.2885048,59.2518459 C50.134955,59.6668933 49.7560684,59.955467 49.3155482,59.994656 C49.2811687,59.9982187 49.2469674,60 49.212766,60 C48.8098316,60 48.4329044,59.7862417 48.225737,59.4353218 L40.1285284,45.7117543 C39.4176447,46.2017685 38.5081189,46.4726612 37.5221456,46.4726612 C36.6494615,46.4726612 35.8365751,46.2605001 35.168328,45.8720612 L27.1666239,59.4353218 C26.9591002,59.7862417 26.5821731,60 26.1790605,60 C26.1452154,60 26.110836,59.9982187 26.0766346,59.994656 C25.6359363,59.955467 25.2572278,59.6668933 25.1034999,59.2518459 L22.6230128,52.5540853 L15.3974473,54.1733046 C14.9533644,54.2712771 14.4950309,54.1002705 14.2248048,53.7351 C13.955113,53.3717109 13.9255431,52.8818481 14.1498112,52.4863952 L21.6570215,39.2797151 C20.0477377,38.8657903 18.7751607,37.3707157 18.3840072,35.9183443 C18.2238666,35.3233837 18.1996407,34.7480175 18.3024228,34.2171844 C16.7366431,33.6827886 15.67658,32.0101298 15.4907884,30.3832508 C15.3908564,29.505773 15.5369246,28.7100576 15.8890914,28.0552446 C15.488829,27.7638208 15.1427186,27.3772745 14.8716018,26.9073625 C14.0587858,25.4999421 14.0381225,23.5705952 14.820478,22.2151893 C14.982578,21.9342753 15.1754949,21.6843562 15.394419,21.468104 C14.88799,20.7960122 14.6186545,19.9067776 14.6555278,18.882519 C14.7118175,17.3215489 15.5203583,15.720321 16.8645419,15.0145623 C16.6514961,14.4169297 16.6026879,13.7375345 16.7387807,13.0134282 C17.053718,11.3368504 18.3905981,9.6082582 20.176727,9.2858394 C20.1567762,8.84264716 20.2250007,8.38413557 20.3847851,7.92491145 C21.0027247,6.15338941 22.8645597,4.76556354 24.6237906,4.76556354 C24.759349,4.76556354 24.8931261,4.77340134 25.0245875,4.78889882 C25.0904963,4.53488269 25.1875782,4.28442919 25.3161894,4.04110097 C26.0696875,2.61248289 27.7815354,1.61476595 29.4791326,1.61476595 C30.0276009,1.61476595 30.5342081,1.71968566 30.9834568,1.91830276 C31.0304836,1.84259669 31.080895,1.76831567 31.1343345,1.69581598 C31.9058239,0.649825282 33.3139568,0 34.8097307,0 C35.9077359,0 36.8456005,0.343794626 37.5217893,0.936795822 C38.1979781,0.343794626 39.1360209,0 40.2340261,0 Z M48.0900005,43.2449106 L48.089288,43.2449106 C47.7615252,43.2449106 47.4469442,43.202159 47.1499983,43.1202183 C47.0789236,43.285881 46.9937766,43.447981 46.894379,43.6065184 C46.122177,44.8320661 44.5286088,45.656817 42.9288059,45.656817 L42.755,45.651 L48.9756724,56.1933206 L50.9670093,50.817299 C51.166517,50.2793406 51.7324422,49.9711723 52.2932015,50.0958647 L57.9686629,51.3677267 L52.0541365,40.9632094 C51.2264484,42.2941548 49.6173218,43.2433269 48.0900005,43.2449106 Z M23.1778654,41.2463934 L17.423698,51.3677267 L23.0996938,50.0958647 C23.6595625,49.9711723 24.2263783,50.2793406 24.425886,50.817299 L26.4168666,56.1933206 L32.6524305,45.6249249 C32.4783272,45.646043 32.2990984,45.656817 32.1153071,45.656817 C30.5158605,45.656817 28.9222922,44.8338474 28.1497341,43.6065184 C28.0505146,43.447981 27.9653675,43.285881 27.894471,43.1202183 C27.5961,43.202159 27.2808065,43.2449106 26.9517968,43.2449106 C25.5339659,43.2449106 24.0458518,42.426761 23.1778654,41.2463934 Z M40.2340261,2.29327047 C39.6493971,2.29327047 38.6684245,2.46035822 38.6684245,3.57884861 C38.6684245,4.21228576 38.1550483,4.72566198 37.5217893,4.72566198 C36.8883522,4.72566198 36.3751541,4.21228576 36.3751541,3.57884861 C36.3751541,2.46053636 35.3945378,2.29327047 34.8097307,2.29327047 C34.0521356,2.29327047 33.316807,2.60019179 32.9801376,3.05692206 C32.8454699,3.23986355 32.6858637,3.54785366 32.859186,4.10807858 C32.8940999,4.22083609 32.9106662,4.33501866 32.9106662,4.44724178 C32.9106662,4.93674832 32.5946601,5.39009408 32.1024816,5.54221875 C31.4973674,5.72996981 30.8555581,5.39062848 30.6681633,4.78569244 C30.551665,4.40894341 30.3015678,3.90803642 29.4791326,3.90803642 C28.6522442,3.90803642 27.694607,4.44759804 27.3445777,5.11096135 C27.132957,5.51229259 27.1705428,5.89830448 27.4630355,6.32582111 C27.5985939,6.52390382 27.6632558,6.74924071 27.6632558,6.97244002 C27.6632558,7.33814487 27.4885083,7.69761511 27.1641301,7.91974563 C26.6409566,8.27725641 25.9277164,8.1433012 25.5700274,7.62066212 C25.3079954,7.23750033 25.0071305,7.05901214 24.6237906,7.05901214 C23.8204156,7.05901214 22.851556,7.81642911 22.5506912,8.68001271 C22.3584869,9.2306185 22.4890576,9.66169778 22.9607509,10.0364874 C23.2461183,10.262893 23.3946803,10.5977811 23.3945022,10.9356973 C23.3945022,11.1854383 23.313274,11.4367825 23.1461863,11.6475125 C22.7523366,12.1434318 22.0312585,12.2262632 21.5349829,11.8325916 C21.2749103,11.6261367 21.0257038,11.5258484 20.7732908,11.5258484 C20.0294119,11.5258484 19.1806132,12.436637 18.9928622,13.4368478 C18.7867635,14.5334279 19.5135418,14.8164796 19.7525949,14.9096426 C20.2061187,15.0861713 20.4834702,15.5197444 20.483292,15.9787904 C20.4831139,16.1170208 20.4579973,16.2575669 20.404914,16.3941941 C20.1751238,16.984167 19.5106917,17.2766597 18.9201843,17.0465132 C18.730652,16.9727666 18.5519856,16.9353589 18.3888168,16.9353589 C17.5704787,16.9353589 16.9826433,17.9847341 16.9475513,18.9651722 C16.9235035,19.630495 17.1076919,20.4388577 18.1225096,20.5118918 C18.7265549,20.5555341 19.1872041,21.0592912 19.1866697,21.6553207 C19.1866697,21.682753 19.1859572,21.7103634 19.1839977,21.738152 C19.1380397,22.3698078 18.5879683,22.8438169 17.9575594,22.799462 C17.4213823,22.7600949 17.0521148,22.9373362 16.8064709,23.3618245 C16.4323938,24.0096904 16.4548384,25.0633407 16.8575947,25.7605491 C17.2222308,26.3920268 17.6903615,26.3920268 17.8444456,26.3920268 C17.9602314,26.3920268 18.08528,26.3767075 18.2169195,26.3462469 C18.8334341,26.2044539 19.4501268,26.5881501 19.5924542,27.2051991 C19.612405,27.2919493 19.6220241,27.3786996 19.6223804,27.4642029 C19.6223804,27.9861295 19.2638008,28.4581791 18.7333239,28.5807338 C17.9963921,28.751028 17.672192,29.2699263 17.7692739,30.1231782 C17.8761531,31.0571239 18.5566171,32.0991957 19.3623078,32.0991957 C19.5692971,32.0991957 19.7930308,32.0297243 20.0272743,31.894344 C20.5743174,31.5754879 21.2765135,31.7625264 21.5948353,32.3093914 C21.7001112,32.491086 21.7499882,32.6888124 21.7499882,32.8847575 C21.7499882,33.2802104 21.5453146,33.6649754 21.1790754,33.8769524 C20.8190707,34.0871481 20.3675063,34.4630065 20.5985434,35.3216024 C20.8489969,36.251451 21.7702952,37.0975777 22.5318092,37.0975777 C22.8397993,37.0975777 23.1214259,36.9550722 23.3914739,36.6629358 C23.8211281,36.1980115 24.5466595,36.1695103 25.0119401,36.5988083 C25.256159,36.8250358 25.3803169,37.1332041 25.3804951,37.4413723 C25.3806732,37.7192581 25.2800287,37.9989253 25.0758895,38.2198089 C24.690412,38.6366376 24.6084713,39.0534663 24.8183107,39.5344225 C25.1546238,40.3021711 26.1316774,40.9523527 26.9517968,40.9523527 C27.4389877,40.9523527 27.775657,40.7225625 28.0116818,40.2309184 C28.2854706,39.6591149 28.9698535,39.4186368 29.5414788,39.6929599 C29.9526073,39.8906864 30.1923729,40.3003898 30.192551,40.7279064 C30.192551,40.8935691 30.156034,41.0627945 30.0792591,41.2231132 C29.8669259,41.6648804 29.8704885,42.0353948 30.0906596,42.3845334 C30.4479922,42.9527743 31.2992847,43.364259 32.1149508,43.364259 C33.3139568,43.364259 33.4363335,42.5501961 33.476235,42.2829982 C33.5701106,41.6577551 34.1547396,41.2248945 34.7803389,41.3193045 C35.3492923,41.4048078 35.7575707,41.8946706 35.7572144,42.4522235 C35.7572144,42.5092257 35.7527611,42.566228 35.7442108,42.6232302 C35.682399,43.0364963 35.7561456,43.3571337 35.9695477,43.6047371 C36.2752221,43.9592197 36.8698264,44.1801033 37.5221456,44.1801033 C38.1739303,44.1801033 38.7690691,43.9592197 39.0743872,43.6047371 C39.2879674,43.3571337 39.361714,43.0364963 39.2997241,42.6232302 C39.2909956,42.566228 39.2867205,42.5092257 39.2867205,42.4522235 C39.2865423,41.8946706 39.6944645,41.4048078 40.2634179,41.3193045 C40.8893735,41.2248945 41.4738243,41.6577551 41.5675217,42.2829982 C41.6077795,42.5501961 41.7297999,43.364259 42.9288059,43.364259 C43.7448283,43.364259 44.5961208,42.9509929 44.9534534,42.3845334 C45.1736245,42.0336135 45.1771872,41.6648804 44.9648539,41.2231132 C44.8879009,41.0627945 44.851562,40.8935691 44.851562,40.7279064 C44.8517401,40.3003898 45.0916838,39.8906864 45.5026342,39.6929599 C46.0733689,39.4186368 46.7584643,39.6591149 47.0326093,40.2309184 C47.2680998,40.7225625 47.6042347,40.9505714 48.0896442,40.9505714 C48.9099418,40.9505714 49.8878861,40.3003898 50.2249117,39.5290786 C50.4345729,39.0499037 50.3528104,38.6312936 49.967511,38.2144649 C49.7633718,37.9935813 49.6625492,37.7139142 49.6627273,37.4360284 C49.6629054,37.1278601 49.7868852,36.8196919 50.0311041,36.5934643 C50.4962066,36.1641664 51.2215598,36.1926675 51.6515703,36.6575918 C51.9217964,36.9497282 52.2030668,37.0922337 52.5115913,37.0922337 C53.2732834,37.0922337 54.194938,36.2461071 54.4452134,35.3162584 C54.6755379,34.4594438 54.2245079,34.0835854 53.8648595,33.8751711 C53.4984422,33.6614128 53.2941248,33.2784291 53.2937686,32.8829762 C53.2937686,32.6870311 53.3436455,32.4893047 53.4490996,32.3076101 C53.766887,31.7589637 54.4687268,31.5737065 55.0164825,31.8907814 C55.2509041,32.027943 55.4744597,32.0974144 55.6812708,32.0974144 C56.4871397,32.0974144 57.1676037,31.0553426 57.2741265,30.1203281 C57.3712085,29.268145 57.0470083,28.749781 56.3100765,28.5794869 C55.7797778,28.4569322 55.4213763,27.9850607 55.4213763,27.4631341 C55.4213763,27.3776308 55.4311736,27.2908805 55.4509462,27.2041303 C55.5936299,26.5870813 56.2097883,26.2030288 56.826481,26.3451781 C56.9581205,26.3754605 57.0835254,26.390958 57.1989549,26.390958 C58.1500013,26.390958 58.5044838,25.2192062 58.5044838,24.4808493 C58.5044838,24.1990446 58.4428501,22.79394 57.224784,22.79394 C57.1800729,22.79394 57.1335805,22.7955431 57.0863755,22.7989276 C56.4575698,22.8454201 55.9058952,22.3694516 55.8601153,21.7376176 C55.858334,21.7100072 55.8572652,21.6823967 55.8572652,21.6549644 C55.8565526,21.0587568 56.3175581,20.5551778 56.9212472,20.5115355 C57.9360648,20.4383233 58.1202532,19.6299606 58.0965617,18.9646378 C58.0611134,17.984556 57.4736343,16.9350026 56.6545837,16.9350026 C56.491593,16.9350026 56.3131048,16.9725885 56.1235724,17.0463351 C55.5327088,17.2763034 54.8684548,16.984167 54.6388428,16.394016 C54.5855813,16.2573888 54.5602866,16.1168427 54.5602866,15.9784342 C54.5599303,15.5195663 54.8378161,15.0859932 55.2911619,14.9092863 C55.5300368,14.8163014 56.2569932,14.5330717 56.0508946,13.4366696 C55.8631435,12.4364589 55.014523,11.5258484 54.2706441,11.5258484 C54.0182311,11.5258484 53.7690246,11.6261367 53.5087738,11.8325916 C53.0130326,12.2262632 52.2914202,12.1434318 51.8979268,11.6475125 C51.7304827,11.4367825 51.6492546,11.1854383 51.6492546,10.9356973 C51.6492546,10.5977811 51.7978166,10.262893 52.0830058,10.0364874 C52.5550554,9.66169778 52.6852699,9.2306185 52.4934218,8.68001271 C52.1922007,7.81642911 51.2233411,7.05901214 50.4196099,7.05901214 C50.03627,7.05901214 49.7354051,7.23750033 49.4733731,7.62066212 C49.1156841,8.1433012 48.4020876,8.27690015 47.8794485,7.91974563 C47.5548922,7.69761511 47.3801447,7.33814487 47.3801447,6.97244002 C47.3801447,6.74924071 47.4449848,6.52390382 47.580365,6.32582111 L47.588,6.312 L47.5948612,6.20384956 C47.6189573,5.9928235 47.7014098,5.79121384 47.8315561,5.62452364 C47.8349459,5.45303766 47.7899729,5.28325411 47.6988228,5.11060508 C47.3491498,4.44741991 46.3916907,3.90785829 45.5646241,3.90785829 C44.7425452,3.90785829 44.492448,4.40876528 44.3759497,4.78551431 C44.1887331,5.39062848 43.5462112,5.72925728 42.9416314,5.54204062 C42.449631,5.38991595 42.1334469,4.93639206 42.1334469,4.44688551 C42.1334469,4.33484053 42.1501913,4.22065796 42.184927,4.10772232 C42.3582494,3.54749739 42.1989994,3.23968542 42.0643317,3.05674393 C41.7276623,2.60001366 40.9921556,2.29327047 40.2340261,2.29327047 Z M37.5217893,9.11394209 C37.9582125,9.11394209 38.3570499,9.3617236 38.5501449,9.75307946 L42.2032746,17.1558862 L50.3729393,18.3426011 C50.8049092,18.4054817 51.1638451,18.7079497 51.2988691,19.1231753 C51.4335368,19.5382227 51.3209574,19.9938841 51.008514,20.2986679 L45.0966715,26.0612358 L46.4921571,34.1975899 C46.5660818,34.6268878 46.3891968,35.0615297 46.0357831,35.3180397 C45.8362753,35.4641079 45.599538,35.537142 45.3617318,35.537142 C45.1795029,35.537142 44.9962051,35.4943903 44.8284048,35.4053244 L37.5217893,31.5647999 L30.2148175,35.4053244 C29.8284494,35.6083948 29.3603187,35.5745497 29.0074393,35.3180397 C28.6540255,35.0615297 28.4774968,34.6268878 28.5512434,34.1975899 L29.946729,26.0612358 L24.0352427,20.2984897 C23.7226212,19.9938841 23.6100418,19.5382227 23.7450658,19.1231753 C23.8799117,18.7079497 24.2386694,18.4054817 24.6708175,18.3426011 L32.840304,17.1558862 L36.4934337,9.75307946 C36.6865287,9.3617236 37.0855442,9.11394209 37.5217893,9.11394209 Z M37.5217893,12.8518625 L34.6299956,18.7115124 C34.4630859,19.0497849 34.1403109,19.2845628 33.7667682,19.338893 L27.2996885,20.2781827 L31.9792143,24.8397852 C32.2492623,25.1032423 32.3727077,25.4826633 32.3087584,25.8547809 L31.2043404,32.2951409 L36.988106,29.2540725 C37.3222815,29.0784345 37.7216533,29.0784345 38.0554726,29.2540725 L43.8390601,32.2951409 L42.734464,25.8547809 C42.6703365,25.4826633 42.7939601,25.1032423 43.0640081,24.839607 L47.7440683,20.2781827 L41.2766323,19.338893 C40.9030896,19.2845628 40.5803146,19.0497849 40.4132268,18.7115124 L37.5217893,12.8518625 Z" id="Combined-Shape"></path>
                </g>
            </g>
        </g>
    </g>
</svg>