<?xml version="1.0" encoding="UTF-8"?>
<svg width="78px" height="61px" viewBox="0 0 78 61" version="1.1" xmlns="http://www.w3.org/2000/svg" xmlns:xlink="http://www.w3.org/1999/xlink">
    <!-- Generator: Sketch 51.2 (57519) - http://www.bohemiancoding.com/sketch -->
    <title>Icon</title>
    <desc>Created with Sketch.</desc>
    <defs></defs>
    <g id="Page-1" stroke="none" stroke-width="1" fill="none" fill-rule="evenodd">
        <g id="Home-Decor---v2" transform="translate(-845.000000, -2052.000000)" fill="#8CC63F" stroke="#8CC63F" stroke-width="0.8">
            <g id="Summary" transform="translate(500.000000, 2031.000000)">
                <g id="Guarantee">
                    <g id="Group-5">
                        <g id="Group-Copy" transform="translate(346.000000, 22.000000)">
                            <g id="Icon" transform="translate(38.500000, 30.000000) rotate(-360.000000) translate(-38.500000, -30.000000) ">
                                <g id="Page-1" transform="translate(0.059171, 0.363389)">
                                    <path d="M27.2334901,0.000155791759 L10.1567659,17.0764905 L-7.78958797e-05,17.0764905 L-7.78958797e-05,41.8080429 L33.8690506,41.8080429 L34.0949486,41.8080429 L51.1919258,58.90502 L75.6858957,34.4106606 L58.5932028,17.3179678 L58.5932028,7.16813464 L34.4018584,7.16813464 L27.234269,0.000155791759 L27.2334901,0.000155791759 Z M27.2338796,1.08991915 L50.6376966,24.4937362 L34.6398303,40.491992 L34.6398303,17.0764905 L11.2465292,17.0764905 L27.2338796,1.08991915 Z M51.72746,24.4937362 L35.1726381,7.93891437 L57.8224231,7.93891437 L57.8224231,41.0372631 L35.184712,41.0372631 L51.72746,24.4937362 Z M0.770701834,41.0368736 L33.8694401,41.0368736 L33.8694401,17.8472703 L0.770701834,17.8472703 L0.770701834,41.0368736 Z M35.1851015,41.8080429 L58.5932028,41.8080429 L58.5932028,18.4077311 L74.5961323,34.4106606 L51.1919258,57.8148672 L35.1851015,41.8080429 Z" id="Fill-1"></path>
                                    <path d="M28.2085518,32.9853608 C29.5257711,32.9853608 30.5976184,34.0572081 30.5976184,35.3744274 C30.5976184,36.6920362 29.5257711,37.7638835 28.2085518,37.7638835 C26.890943,37.7638835 25.8194851,36.6920362 25.8194851,35.3744274 C25.8194851,34.0572081 26.890943,32.9853608 28.2085518,32.9853608 M28.2085518,38.5342738 C29.9510826,38.5342738 31.3683981,37.1169582 31.3683981,35.3744274 C31.3683981,33.6322861 29.9510826,32.2145811 28.2085518,32.2145811 C26.4660209,32.2145811 25.0487054,33.6322861 25.0487054,35.3744274 C25.0487054,37.1169582 26.4660209,38.5342738 28.2085518,38.5342738" id="Fill-2"></path>
                                </g>
                            </g>
                        </g>
                    </g>
                </g>
            </g>
        </g>
    </g>
</svg>