<?xml version="1.0" encoding="UTF-8"?>
<svg width="61px" height="62px" viewBox="0 0 61 62" version="1.1" xmlns="http://www.w3.org/2000/svg" xmlns:xlink="http://www.w3.org/1999/xlink">
    <!-- Generator: Sketch 51.3 (57544) - http://www.bohemiancoding.com/sketch -->
    <title>new_satisfaction_guarantee</title>
    <desc>Created with Sketch.</desc>
    <defs>
        <path d="M9.49527273,9 C3.93163636,14.5636364 0.868363636,21.96 0.868363636,29.8276364 C0.868363636,37.6952727 3.93163636,45.0916364 9.49527273,50.6563636 C15.0578182,56.2178182 22.4552727,59.2821818 30.3229091,59.2821818 C38.1905455,59.2821818 45.5869091,56.2178182 51.1494545,50.6563636 C56.7141818,45.0916364 59.7774545,37.6952727 59.7774545,29.8276364 C59.7774545,21.96 56.7141818,14.5636364 51.1494545,9 C45.5869091,3.43636364 38.1905455,0.373090909 30.3229091,0.373090909 C22.4552727,0.373090909 15.0578182,3.43636364 9.49527273,9" id="path-1"></path>
        <path d="M9.49527273,9 C3.93163636,14.5636364 0.868363636,21.96 0.868363636,29.8276364 C0.868363636,37.6952727 3.93163636,45.0916364 9.49527273,50.6563636 C15.0578182,56.2178182 22.4552727,59.2821818 30.3229091,59.2821818 C38.1905455,59.2821818 45.5869091,56.2178182 51.1494545,50.6563636 C56.7141818,45.0916364 59.7774545,37.6952727 59.7774545,29.8276364 C59.7774545,21.96 56.7141818,14.5636364 51.1494545,9 C45.5869091,3.43636364 38.1905455,0.373090909 30.3229091,0.373090909 C22.4552727,0.373090909 15.0578182,3.43636364 9.49527273,9 Z" id="path-3"></path>
    </defs>
    <g id="Page-1" stroke="none" stroke-width="1" fill="none" fill-rule="evenodd">
        <g id="POG-Home---Trifecta-Paper" transform="translate(-755.000000, -3594.000000)">
            <g id="new_satisfaction_guarantee" transform="translate(755.000000, 3595.000000)">
                <g id="Group-127">
                    <g id="Fill-125-Clipped">
                        <g>
                            <mask id="mask-2" fill="white">
                                <use xlink:href="#path-1"></use>
                            </mask>
                            <g id="path-1"></g>
                            <path d="M50.6143636,50.1200727 C45.1947273,55.5397091 37.9881818,58.5244364 30.3223636,58.5244364 C22.6576364,58.5244364 15.4510909,55.5397091 10.0303636,50.1200727 C4.61072727,44.6993455 1.626,37.4928 1.626,29.8269818 C1.626,22.1622545 4.61072727,14.9568 10.0303636,9.53607273 C15.4510909,4.11534545 22.6576364,1.13061818 30.3223636,1.13061818 C37.9881818,1.13061818 45.1947273,4.11534545 50.6143636,9.53607273 C56.0350909,14.9568 59.0198182,22.1622545 59.0198182,29.8269818 C59.0198182,37.4928 56.0350909,44.6993455 50.6143636,50.1200727 M51.15,9.00043636 C45.5874545,3.4368 38.19,0.372436364 30.3223636,0.372436364 C22.4558182,0.372436364 15.0583636,3.4368 9.49581818,9.00043636 C3.93218182,14.5629818 0.867818182,21.9604364 0.867818182,29.8269818 C0.867818182,37.6946182 3.93218182,45.0920727 9.49581818,50.6557091 C15.0583636,56.2182545 22.4558182,59.2815273 30.3223636,59.2815273 C38.19,59.2815273 45.5874545,56.2182545 51.15,50.6557091 C56.7136364,45.0920727 59.7769091,37.6946182 59.7769091,29.8269818 C59.7769091,21.9604364 56.7136364,14.5629818 51.15,9.00043636" id="Fill-125" fill="#8CC63F" fill-rule="nonzero" mask="url(#mask-2)"></path>
                        </g>
                    </g>
                </g>
                <g id="Group-130">
                    <g id="Fill-128-Clipped">
                        <g id="path-3" stroke="#8CC63F" stroke-width="1.5">
                            <path d="M9.49527273,9 C3.93163636,14.5636364 0.868363636,21.96 0.868363636,29.8276364 C0.868363636,37.6952727 3.93163636,45.0916364 9.49527273,50.6563636 C15.0578182,56.2178182 22.4552727,59.2821818 30.3229091,59.2821818 C38.1905455,59.2821818 45.5869091,56.2178182 51.1494545,50.6563636 C56.7141818,45.0916364 59.7774545,37.6952727 59.7774545,29.8276364 C59.7774545,21.96 56.7141818,14.5636364 51.1494545,9 C45.5869091,3.43636364 38.1905455,0.373090909 30.3229091,0.373090909 C22.4552727,0.373090909 15.0578182,3.43636364 9.49527273,9 Z"></path>
                        </g>
                        <g>
                            <mask id="mask-4" fill="white">
                                <use xlink:href="#path-3"></use>
                            </mask>
                            <g id="path-3"></g>
                            <path d="M13.4931273,23.2468364 L12.5865818,23.2468364 L12.5865818,23.0406545 C12.5865818,22.6195636 12.4087636,22.2693818 11.9473091,22.2693818 C11.4498545,22.2693818 11.3342182,22.6730182 11.3342182,23.0941091 C11.3342182,23.5872 11.3789455,23.7584727 11.8502182,23.9472 L12.5418545,24.2242909 C13.3425818,24.5297455 13.4931273,25.0424727 13.4931273,25.9741091 C13.4931273,27.0508364 13.1025818,27.8493818 11.9287636,27.8493818 C11.0494909,27.8493818 10.3829455,27.1948364 10.3829455,26.3330182 L10.3829455,25.9926545 L11.2894909,25.9926545 L11.2894909,26.2795636 C11.2894909,26.6112 11.4673091,26.9341091 11.9287636,26.9341091 C12.5418545,26.9341091 12.5865818,26.5664727 12.5865818,25.9839273 C12.5865818,25.3021091 12.5069455,25.1930182 12.0618545,25.0141091 L11.4138545,24.7457455 C10.6316727,24.4217455 10.4276727,23.9024727 10.4276727,23.1039273 C10.4276727,22.1341091 10.9436727,21.3541091 11.9833091,21.3541091 C12.8887636,21.3541091 13.4931273,22.0893818 13.4931273,22.7984727 L13.4931273,23.2468364 Z" id="Fill-128" fill="#8CC63F" fill-rule="nonzero" mask="url(#mask-4)"></path>
                        </g>
                    </g>
                </g>
                <g id="Group-133" transform="translate(13.636364, 20.909091)" fill="#8CC63F" fill-rule="nonzero">
                    <g id="Fill-131-Clipped">
                        <path d="M2.13970909,2.33774545 L2.12116364,2.33774545 L1.67825455,4.65265455 L2.58370909,4.65265455 L2.13970909,2.33774545 Z M1.75789091,0.498472727 L2.5128,0.498472727 L3.92552727,6.88683636 L3.01898182,6.88683636 L2.7528,5.51338182 L1.51789091,5.51338182 L1.25170909,6.88683636 L0.344072727,6.88683636 L1.75789091,0.498472727 Z" id="Fill-131"></path>
                    </g>
                </g>
                <g id="Group-136" transform="translate(17.272727, 20.909091)" fill="#8CC63F" fill-rule="nonzero">
                    <polygon id="Fill-134" points="1.06283636 1.35974545 0.0144727273 1.35974545 0.0144727273 0.499018182 3.01774545 0.499018182 3.01774545 1.35974545 1.96938182 1.35974545 1.96938182 6.88629091 1.06283636 6.88629091"></polygon>
                </g>
                <polygon id="Fill-137" fill="#8CC63F" fill-rule="nonzero" points="20.9378182 27.7952727 21.8443636 27.7952727 21.8443636 21.408 20.9378182 21.408"></polygon>
                <path d="M25.8782182,23.2468364 L24.9716727,23.2468364 L24.9716727,23.0406545 C24.9716727,22.6195636 24.7938545,22.2693818 24.3324,22.2693818 C23.8349455,22.2693818 23.7193091,22.6730182 23.7193091,23.0941091 C23.7193091,23.5872 23.7640364,23.7584727 24.2353091,23.9472 L24.9269455,24.2242909 C25.7276727,24.5297455 25.8782182,25.0424727 25.8782182,25.9741091 C25.8782182,27.0508364 25.4876727,27.8493818 24.3138545,27.8493818 C23.4345818,27.8493818 22.7680364,27.1948364 22.7680364,26.3330182 L22.7680364,25.9926545 L23.6745818,25.9926545 L23.6745818,26.2795636 C23.6745818,26.6112 23.8524,26.9341091 24.3138545,26.9341091 C24.9269455,26.9341091 24.9716727,26.5664727 24.9716727,25.9839273 C24.9716727,25.3021091 24.8920364,25.1930182 24.4469455,25.0141091 L23.7989455,24.7457455 C23.0167636,24.4217455 22.8127636,23.9024727 22.8127636,23.1039273 C22.8127636,22.1341091 23.3276727,21.3541091 24.3673091,21.3541091 C25.2738545,21.3541091 25.8782182,22.0893818 25.8782182,22.7984727 L25.8782182,23.2468364 Z" id="Fill-139" fill="#8CC63F" fill-rule="nonzero"></path>
                <polygon id="Fill-140" fill="#8CC63F" fill-rule="nonzero" points="26.7747273 21.408 29.4769091 21.408 29.4769091 22.2687273 27.6812727 22.2687273 27.6812727 24.2061818 29.2456364 24.2061818 29.2456364 25.068 27.6812727 25.068 27.6812727 27.7952727 26.7747273 27.7952727"></polygon>
                <path d="M31.2278182,23.2468364 L31.2103636,23.2468364 L30.7663636,25.5617455 L31.6729091,25.5617455 L31.2278182,23.2468364 Z M30.846,21.4075636 L31.6009091,21.4075636 L33.0136364,27.7959273 L32.1081818,27.7959273 L31.8409091,26.4224727 L30.606,26.4224727 L30.3398182,27.7959273 L29.4332727,27.7959273 L30.846,21.4075636 Z" id="Fill-141" fill="#8CC63F" fill-rule="nonzero"></path>
                <path d="M36.5587636,26.3693455 C36.5587636,27.1591636 35.9282182,27.8486182 35.1198545,27.8486182 C34.4260364,27.8486182 33.6264,27.5082545 33.6264,26.3420727 L33.6264,22.8249818 C33.6264,21.9904364 34.2220364,21.3533455 35.1013091,21.3533455 C35.9369455,21.3533455 36.5587636,21.9904364 36.5587636,22.8795273 L36.5587636,23.2384364 L35.6522182,23.2384364 L35.6522182,22.9340727 C35.6522182,22.5740727 35.4394909,22.2686182 35.0925818,22.2686182 C34.6398545,22.2686182 34.5329455,22.5828 34.5329455,23.0137091 L34.5329455,26.2798909 C34.5329455,26.6475273 34.6747636,26.9344364 35.0838545,26.9344364 C35.3325818,26.9344364 35.6522182,26.7915273 35.6522182,26.2886182 L35.6522182,25.9744364 L36.5587636,25.9744364 L36.5587636,26.3693455 Z" id="Fill-142" fill="#8CC63F" fill-rule="nonzero"></path>
                <polygon id="Fill-143" fill="#8CC63F" fill-rule="nonzero" points="38.1130909 22.2688364 37.0647273 22.2688364 37.0647273 21.4081091 40.068 21.4081091 40.068 22.2688364 39.0196364 22.2688364 39.0196364 27.7953818 38.1130909 27.7953818"></polygon>
                <polygon id="Fill-144" fill="#8CC63F" fill-rule="nonzero" points="40.716 27.7952727 41.6225455 27.7952727 41.6225455 21.408 40.716 21.408"></polygon>
                <path d="M43.5772364,26.2884 C43.5772364,26.7280364 43.8608727,26.9342182 44.1903273,26.9342182 C44.5186909,26.9342182 44.8034182,26.7280364 44.8034182,26.2884 L44.8034182,22.9153091 C44.8034182,22.4756727 44.5186909,22.2684 44.1903273,22.2684 C43.8608727,22.2684 43.5772364,22.4756727 43.5772364,22.9153091 L43.5772364,26.2884 Z M42.6706909,22.9153091 C42.6706909,21.8745818 43.4528727,21.3542182 44.1903273,21.3542182 C44.9277818,21.3542182 45.7099636,21.8745818 45.7099636,22.9153091 L45.7099636,26.2884 C45.7099636,27.3291273 44.9277818,27.8494909 44.1903273,27.8494909 C43.4528727,27.8494909 42.6706909,27.3291273 42.6706909,26.2884 L42.6706909,22.9153091 Z" id="Fill-145" fill="#8CC63F" fill-rule="nonzero"></path>
                <polygon id="Fill-146" fill="#8CC63F" fill-rule="nonzero" points="46.6949455 21.408 47.5654909 21.408 48.9345818 25.2567273 48.9520364 25.2567273 48.9520364 21.408 49.8585818 21.408 49.8585818 27.7952727 49.0054909 27.7952727 47.6189455 23.9552727 47.6014909 23.9552727 47.6014909 27.7952727 46.6949455 27.7952727"></polygon>
                <path d="M11.6990182,30.9918545 C11.6990182,29.9511273 12.4812,29.4307636 13.2186545,29.4307636 C13.9561091,29.4307636 14.7382909,29.9511273 14.7382909,30.9918545 L14.7382909,31.3147636 L13.8317455,31.3147636 L13.8317455,30.9918545 C13.8317455,30.5522182 13.5470182,30.3449455 13.2186545,30.3449455 C12.8902909,30.3449455 12.6055636,30.5522182 12.6055636,30.9918545 L12.6055636,34.3649455 C12.6055636,34.8045818 12.8902909,35.0118545 13.2186545,35.0118545 C13.5470182,35.0118545 13.8317455,34.8045818 13.8317455,34.3649455 L13.8317455,33.1627636 L13.1117455,33.1627636 L13.1117455,32.3554909 L14.7382909,32.3554909 L14.7382909,34.3649455 C14.7382909,35.4056727 13.9561091,35.9249455 13.2186545,35.9249455 C12.4812,35.9249455 11.6990182,35.4056727 11.6990182,34.3649455 L11.6990182,30.9918545 Z" id="Fill-147" fill="#8CC63F" fill-rule="nonzero"></path>
                <path d="M18.6914182,34.4371636 C18.6914182,35.2717091 18.0336,35.9251636 17.2252364,35.9251636 C16.4168727,35.9251636 15.7590545,35.2717091 15.7590545,34.4371636 L15.7590545,29.4844364 L16.6656,29.4844364 L16.6656,34.3466182 C16.6656,34.7960727 16.9056,35.0109818 17.2252364,35.0109818 C17.5448727,35.0109818 17.7848727,34.7960727 17.7848727,34.3466182 L17.7848727,29.4844364 L18.6914182,29.4844364 L18.6914182,34.4371636 Z" id="Fill-148" fill="#8CC63F" fill-rule="nonzero"></path>
                <path d="M21.0458182,31.3231636 L21.0283636,31.3231636 L20.5843636,33.6380727 L21.4898182,33.6380727 L21.0458182,31.3231636 Z M20.664,29.4838909 L21.4189091,29.4838909 L22.8316364,35.8722545 L21.9261818,35.8722545 L21.6589091,34.4998909 L20.424,34.4998909 L20.1578182,35.8722545 L19.2512727,35.8722545 L20.664,29.4838909 Z" id="Fill-149" fill="#8CC63F" fill-rule="nonzero"></path>
                <path d="M24.4042909,32.3373818 L24.9202909,32.3373818 C25.5497455,32.3373818 25.6479273,31.9784727 25.6479273,31.3413818 C25.6479273,30.6955636 25.5410182,30.3453818 24.8755636,30.3453818 L24.4042909,30.3453818 L24.4042909,32.3373818 Z M23.4977455,29.4846545 L24.9552,29.4846545 C26.0297455,29.4846545 26.5544727,30.1217455 26.5544727,31.3599273 C26.5544727,32.0952 26.3504727,32.6330182 25.7722909,32.9559273 L26.7497455,35.8719273 L25.7908364,35.8719273 L24.9464727,33.1446545 L24.4042909,33.1446545 L24.4042909,35.8719273 L23.4977455,35.8719273 L23.4977455,29.4846545 Z" id="Fill-150" fill="#8CC63F" fill-rule="nonzero"></path>
                <path d="M28.8904364,31.3231636 L28.8729818,31.3231636 L28.4289818,33.6380727 L29.3355273,33.6380727 L28.8904364,31.3231636 Z M28.5086182,29.4838909 L29.2635273,29.4838909 L30.6762545,35.8722545 L29.7708,35.8722545 L29.5035273,34.4998909 L28.2686182,34.4998909 L28.0024364,35.8722545 L27.0958909,35.8722545 L28.5086182,29.4838909 Z" id="Fill-151" fill="#8CC63F" fill-rule="nonzero"></path>
                <polygon id="Fill-152" fill="#8CC63F" fill-rule="nonzero" points="31.3066909 29.4843273 32.1772364 29.4843273 33.5463273 33.3330545 33.5637818 33.3330545 33.5637818 29.4843273 34.4703273 29.4843273 34.4703273 35.8716 33.6172364 35.8716 32.2317818 32.0326909 32.2132364 32.0326909 32.2132364 35.8716 31.3066909 35.8716"></polygon>
                <polygon id="Fill-153" fill="#8CC63F" fill-rule="nonzero" points="36.1044 30.3451636 35.0560364 30.3451636 35.0560364 29.4844364 38.0593091 29.4844364 38.0593091 30.3451636 37.0109455 30.3451636 37.0109455 35.8717091 36.1044 35.8717091"></polygon>
                <polygon id="Fill-154" fill="#8CC63F" fill-rule="nonzero" points="38.6803636 29.4843273 41.3814545 29.4843273 41.3814545 30.3450545 39.5869091 30.3450545 39.5869091 32.2214182 41.1501818 32.2214182 41.1501818 33.0821455 39.5869091 33.0821455 39.5869091 34.9574182 41.3814545 34.9574182 41.3814545 35.8716 38.6803636 35.8716"></polygon>
                <polygon id="Fill-155" fill="#8CC63F" fill-rule="nonzero" points="42.1896 29.4843273 44.8917818 29.4843273 44.8917818 30.3450545 43.0961455 30.3450545 43.0961455 32.2214182 44.6605091 32.2214182 44.6605091 33.0821455 43.0961455 33.0821455 43.0961455 34.9574182 44.8917818 34.9574182 44.8917818 35.8716 42.1896 35.8716"></polygon>
                <path d="M46.6054909,35.0113091 L47.0233091,35.0113091 C47.5294909,35.0113091 47.7247636,34.7604 47.7247636,34.2127636 L47.7247636,31.1353091 C47.7247636,30.6324 47.5567636,30.3454909 47.0233091,30.3454909 L46.6054909,30.3454909 L46.6054909,35.0113091 Z M45.6989455,29.4847636 L47.0407636,29.4847636 C48.0618545,29.4847636 48.6313091,30.1033091 48.6313091,31.1353091 L48.6313091,34.1233091 C48.6313091,35.3069455 48.0269455,35.8720364 46.9611273,35.8720364 L45.6989455,35.8720364 L45.6989455,29.4847636 Z" id="Fill-156" fill="#8CC63F" fill-rule="nonzero"></path>
                <polygon id="Fill-157" fill="#8CC63F" fill-rule="nonzero" points="21.2823273 8.43534545 19.4114182 9.82407273 19.4114182 7.82334545 21.2823273 6.43461818 23.1521455 6.43461818 23.1521455 19.6226182 21.2823273 19.6226182"></polygon>
                <path d="M26.3799273,16.9005818 C26.3799273,17.4373091 26.7650182,17.8442182 27.2962909,17.8442182 C27.8286545,17.8442182 28.2137455,17.4373091 28.2137455,16.9005818 L28.2137455,9.15730909 C28.2137455,8.62058182 27.8286545,8.21258182 27.2962909,8.21258182 C26.7650182,8.21258182 26.3799273,8.62058182 26.3799273,9.15730909 L26.3799273,16.9005818 Z M24.5101091,9.15730909 C24.5101091,7.39767273 25.8115636,6.32312727 27.2962909,6.32312727 C28.7821091,6.32312727 30.0846545,7.39767273 30.0846545,9.15730909 L30.0846545,16.9005818 C30.0846545,18.6591273 28.7821091,19.7347636 27.2962909,19.7347636 C25.8115636,19.7347636 24.5101091,18.6591273 24.5101091,16.9005818 L24.5101091,9.15730909 Z" id="Fill-158" fill="#8CC63F" fill-rule="nonzero"></path>
                <path d="M33.2019273,16.9005818 C33.2019273,17.4373091 33.5870182,17.8442182 34.1182909,17.8442182 C34.6506545,17.8442182 35.0357455,17.4373091 35.0357455,16.9005818 L35.0357455,9.15730909 C35.0357455,8.62058182 34.6506545,8.21258182 34.1182909,8.21258182 C33.5870182,8.21258182 33.2019273,8.62058182 33.2019273,9.15730909 L33.2019273,16.9005818 Z M31.3310182,9.15730909 C31.3310182,7.39767273 32.6335636,6.32312727 34.1182909,6.32312727 C35.6041091,6.32312727 36.9066545,7.39767273 36.9066545,9.15730909 L36.9066545,16.9005818 C36.9066545,18.6591273 35.6041091,19.7347636 34.1182909,19.7347636 C32.6335636,19.7347636 31.3310182,18.6591273 31.3310182,16.9005818 L31.3310182,9.15730909 Z" id="Fill-159" fill="#8CC63F" fill-rule="nonzero"></path>
                <path d="M40.9394182,12.5912727 C40.9394182,12.7429091 41.0681455,12.8727273 41.2066909,12.8727273 C41.3463273,12.8727273 41.4739636,12.7429091 41.4739636,12.5912727 L41.4739636,12.0403636 C41.4739636,11.8887273 41.3463273,11.76 41.2066909,11.76 C41.0681455,11.76 40.9394182,11.8887273 40.9394182,12.0403636 L40.9394182,12.5912727 Z M40.2979636,12.6992727 L40.2979636,11.9978182 C40.2979636,11.4578182 40.6503273,11.1130909 41.2066909,11.1130909 C41.7630545,11.1130909 42.1165091,11.4578182 42.1165091,11.9978182 L42.1165091,12.6992727 C42.1165091,13.1858182 41.7630545,13.5196364 41.2066909,13.5196364 C40.6503273,13.5196364 40.2979636,13.1858182 40.2979636,12.6992727 Z M39.7197818,7.18254545 L39.7197818,6.63163636 C39.7197818,6.48109091 39.5921455,6.35127273 39.4525091,6.35127273 C39.3139636,6.35127273 39.1852364,6.48109091 39.1852364,6.63163636 L39.1852364,7.18254545 C39.1852364,7.33418182 39.3139636,7.464 39.4525091,7.464 C39.5921455,7.464 39.7197818,7.33418182 39.7197818,7.18254545 Z M41.2819636,5.76872727 L41.9877818,5.76872727 L39.3772364,13.4552727 L38.6714182,13.4552727 L41.2819636,5.76872727 Z M38.5437818,7.29054545 L38.5437818,6.58909091 C38.5437818,6.04909091 38.8961455,5.70436364 39.4525091,5.70436364 C40.0088727,5.70436364 40.3623273,6.04909091 40.3623273,6.58909091 L40.3623273,7.29054545 C40.3623273,7.77709091 40.0088727,8.11090909 39.4525091,8.11090909 C38.8961455,8.11090909 38.5437818,7.77709091 38.5437818,7.29054545 Z" id="Fill-160" fill="#8CC63F" fill-rule="nonzero"></path>
                <polygon id="Fill-161" fill="#8CC63F" fill-rule="nonzero" points="8.87694545 33.4857818 9.34494545 35.6446909 8.66312727 35.7908727 8.35221818 34.3574182 6.81949091 34.6901455 7.09003636 35.9403273 6.40821818 36.0876 6.13767273 34.8374182 3.97985455 35.3065091 3.82276364 34.5821455"></polygon>
                <path d="M6.04745455,38.2404 C5.71363636,38.3636727 5.63727273,38.6396727 5.73,38.8927636 C5.82272727,39.1436727 6.06054545,39.3051273 6.39436364,39.1807636 L8.95690909,38.2360364 C9.29072727,38.1127636 9.36709091,37.8367636 9.27436364,37.5847636 C9.18163636,37.3327636 8.94381818,37.1724 8.61,37.2956727 L6.04745455,38.2404 Z M8.35363636,36.6007636 C9.14345455,36.3084 9.76090909,36.7633091 9.96927273,37.3284 C10.1776364,37.8945818 10.0041818,38.6396727 9.21327273,38.9309455 L6.65072727,39.8767636 C5.86090909,40.1691273 5.24345455,39.7142182 5.03509091,39.1480364 C4.82672727,38.5829455 5.00018182,37.8378545 5.79109091,37.5454909 L8.35363636,36.6007636 Z" id="Fill-162" fill="#8CC63F" fill-rule="nonzero"></path>
                <path d="M8.99836364,40.9453091 L9.20127273,41.3140364 C9.44890909,41.7667636 9.74127273,41.6969455 10.194,41.4493091 C10.6532727,41.1984 10.8594545,40.9856727 10.5976364,40.5089455 L10.4132727,40.1707636 L8.99836364,40.9453091 Z M10.6685455,39.1867636 L11.2412727,40.2307636 C11.6623636,41.0020364 11.4158182,41.6249455 10.5365455,42.1060364 C10.0150909,42.3918545 9.55145455,42.4551273 9.09545455,42.1660364 L7.40890909,44.0009455 L7.03254545,43.3125818 L8.63727273,41.6478545 L8.42454545,41.2584 L6.48818182,42.3187636 L6.13254545,41.6696727 L10.6685455,39.1867636 Z" id="Fill-163" fill="#8CC63F" fill-rule="nonzero"></path>
                <polygon id="Fill-164" fill="#8CC63F" fill-rule="nonzero" points="13.1106545 44.3341091 12.2128364 44.1290182 12.8084727 43.6162909 13.7052 43.8213818 14.1895636 44.3842909 10.2677455 47.7628364 9.78338182 47.1999273"></polygon>
                <path d="M15.8693455,48.0426545 L15.3151636,47.5506545 L15.4264364,47.4262909 C15.6522545,47.1699273 15.7318909,46.8622909 15.4493455,46.6113818 C15.1438909,46.3408364 14.8569818,46.5230182 14.6311636,46.7793818 C14.3660727,47.0772 14.3017091,47.2048364 14.4882545,47.5746545 L14.7631636,48.1179273 C15.0882545,48.7375636 14.9060727,49.1292 14.4042545,49.6942909 C13.8260727,50.3466545 13.1584364,50.6182909 12.4406182,49.9822909 C11.9028,49.5055636 11.8471636,48.7473818 12.3097091,48.2248364 L12.4929818,48.0186545 L13.0471636,48.5106545 L12.8933455,48.6841091 C12.7144364,48.8848364 12.6500727,49.1772 12.9326182,49.4281091 C13.3078909,49.7597455 13.5326182,49.5622909 13.8457091,49.2077455 C14.2111636,48.7942909 14.2209818,48.6862909 14.0453455,48.3372 L13.7933455,47.8222909 C13.4878909,47.2015636 13.6428,46.7761091 14.0715273,46.2928364 C14.5918909,45.7048364 15.3260727,45.5128364 15.9620727,46.0757455 C16.5162545,46.5677455 16.4911636,47.3401091 16.1104364,47.7710182 L15.8693455,48.0426545 Z" id="Fill-165" fill="#8CC63F" fill-rule="nonzero"></path>
                <polygon id="Fill-166" fill="#8CC63F" fill-rule="nonzero" points="17.43 48.1757455 16.7198182 47.6935636 17.1125455 47.1153818 19.146 48.4997455 18.7532727 49.0768364 18.0430909 48.5935636 15.522 52.2982909 14.9089091 51.8804727"></polygon>
                <polygon id="Fill-167" fill="#8CC63F" fill-rule="nonzero" points="21.1299273 50.2893818 20.3412 49.9501091 20.6172 49.3097455 22.8753818 50.2795636 22.5993818 50.9210182 21.8117455 50.5828364 20.0422909 54.6966545 19.3615636 54.4032"></polygon>
                <polygon id="Fill-168" fill="#8CC63F" fill-rule="nonzero" points="23.3826545 50.4257455 24.0895636 50.6504727 22.5186545 55.5824727 21.8128364 55.3566545"></polygon>
                <polygon id="Fill-169" fill="#8CC63F" fill-rule="nonzero" points="24.8719636 50.9307273 25.5734182 51.0529091 26.0370545 53.9176364 26.0523273 53.9198182 27.4563273 51.3845455 28.1654182 51.5078182 27.2708727 56.6067273 26.5399636 56.478 27.0843273 53.3776364 27.0701455 53.3754545 25.9628727 55.4394545 25.5974182 55.3750909 25.2657818 53.0590909 25.2516 53.0558182 24.7072364 56.1561818 23.9774182 56.0285455"></polygon>
                <polygon id="Fill-170" fill="#8CC63F" fill-rule="nonzero" points="28.9368 51.5295273 31.1469818 51.5666182 31.1360727 52.2648 29.6666182 52.2397091 29.6415273 53.7593455 30.9200727 53.7811636 30.9091636 54.4793455 29.6295273 54.4586182 29.6033455 55.9771636 31.0728 56.0022545 31.0597091 56.7440727 28.8484364 56.7058909"></polygon>
                <path d="M36.3989455,54.8821091 C36.5200364,55.5093818 36.1185818,56.1562909 35.4684,56.2806545 C34.9120364,56.3875636 34.2182182,56.2392 34.0404,55.3119273 L33.5047636,52.5137455 C33.3771273,51.8515636 33.7578545,51.2526545 34.4647636,51.1173818 C35.1356727,50.9886545 35.7324,51.3999273 35.8676727,52.1057455 L35.9222182,52.3915636 L35.1945818,52.5312 L35.1476727,52.2879273 C35.0931273,52.0021091 34.8749455,51.7926545 34.5967636,51.8461091 C34.2334909,51.9159273 34.1953091,52.1821091 34.2607636,52.5246545 L34.7593091,55.1221091 C34.8149455,55.4144727 34.9731273,55.6217455 35.3014909,55.5573818 C35.5011273,55.5202909 35.7356727,55.3566545 35.6593091,54.9562909 L35.6113091,54.7075636 L36.3389455,54.5679273 L36.3989455,54.8821091 Z" id="Fill-171" fill="#8CC63F" fill-rule="nonzero"></path>
                <path d="M39.8970545,53.7581455 C40.1174182,54.3963273 39.7836,55.0737818 39.1585091,55.2897818 C38.5345091,55.5068727 37.8526909,55.1817818 37.6312364,54.5436 L36.3188727,50.7537818 L37.0192364,50.5105091 L38.3076,54.2326909 C38.4265091,54.5752364 38.6697818,54.6756 38.9163273,54.5905091 C39.1639636,54.5043273 39.2916,54.2763273 39.1726909,53.9316 L37.8832364,50.2116 L38.5836,49.9683273 L39.8970545,53.7581455 Z" id="Fill-172" fill="#8CC63F" fill-rule="nonzero"></path>
                <path d="M42.1150909,49.8717818 L41.4561818,50.2121455 L41.3798182,50.0637818 C41.2227273,49.7594182 40.9630909,49.5761455 40.6281818,49.7485091 C40.266,49.9361455 40.3325455,50.2699636 40.4896364,50.5732364 C40.6729091,50.9288727 40.7689091,51.0346909 41.1812727,50.9932364 L41.7878182,50.9332364 C42.4827273,50.8514182 42.7827273,51.1634182 43.1307273,51.8354182 C43.5310909,52.6099636 43.5441818,53.3310545 42.6921818,53.7717818 C42.0518182,54.1034182 41.3241818,53.8819636 41.0034545,53.2612364 L40.8769091,53.0168727 L41.5358182,52.6754182 L41.6427273,52.8826909 C41.766,53.1216 42.0158182,53.2874182 42.3518182,53.1139636 C42.7969091,52.8837818 42.6921818,52.6012364 42.4750909,52.1812364 C42.2209091,51.6914182 42.1227273,51.6434182 41.7332727,51.6816 L41.1616364,51.7317818 C40.4732727,51.7928727 40.1307273,51.4950545 39.834,50.9201455 C39.474,50.2230545 39.5569091,49.4670545 40.3129091,49.0765091 C40.9718182,48.7361455 41.6841818,49.0383273 41.9481818,49.5488727 L42.1150909,49.8717818 Z" id="Fill-173" fill="#8CC63F" fill-rule="nonzero"></path>
                <polygon id="Fill-174" fill="#8CC63F" fill-rule="nonzero" points="42.7910182 48.4772727 42.0873818 48.966 41.6902909 48.3932727 43.7062909 46.9936364 44.1033818 47.5652727 43.3997455 48.054 45.9502909 51.7281818 45.3415636 52.1514545"></polygon>
                <path d="M47.1605455,49.2241091 C47.3994545,49.4881091 47.6841818,49.4575636 47.8838182,49.2775636 C48.0834545,49.0964727 48.1445455,48.8172 47.9056364,48.5532 L46.0750909,46.5219273 C45.8372727,46.2579273 45.5514545,46.2906545 45.3529091,46.4706545 C45.1521818,46.6506545 45.0921818,46.9299273 45.33,47.1950182 L47.1605455,49.2241091 Z M44.7801818,47.6913818 C44.2150909,47.0652 44.4081818,46.3233818 44.8565455,45.9197455 C45.3038182,45.5161091 46.0609091,45.3993818 46.626,46.0255636 L48.4554545,48.0557455 C49.0216364,48.6819273 48.8285455,49.4237455 48.3801818,49.8273818 C47.9318182,50.2310182 47.1747273,50.3466545 46.6107273,49.7204727 L44.7801818,47.6913818 Z" id="Fill-175" fill="#8CC63F" fill-rule="nonzero"></path>
                <polygon id="Fill-176" fill="#8CC63F" fill-rule="nonzero" points="46.3311273 44.6143636 46.7729455 44.0558182 49.5111273 45.0103636 49.5187636 44.9994545 47.9587636 42.5590909 48.4060364 41.9950909 52.4598545 45.2067273 51.9994909 45.7870909 49.5340364 43.8343636 49.5253091 43.8463636 50.8114909 45.8012727 50.5824 46.0914545 48.3885818 45.2798182 48.3798545 45.2918182 50.8453091 47.2445455 50.3849455 47.8249091"></polygon>
                <polygon id="Fill-177" fill="#8CC63F" fill-rule="nonzero" points="48.7803273 41.3384727 49.8636 39.4119273 50.4712364 39.7544727 49.7512364 41.0341091 51.0756 41.7781091 51.7028727 40.6632 52.3105091 41.0046545 51.6832364 42.1206545 53.0076 42.8635636 53.7276 41.5850182 54.3734182 41.9482909 53.2901455 43.8737455"></polygon>
                <path d="M52.5399273,39.0308727 L52.6937455,38.6392364 C52.8835636,38.1581455 52.6413818,37.9770545 52.1613818,37.7883273 C51.6748364,37.5974182 51.3781091,37.5745091 51.1784727,38.0817818 L51.0377455,38.4406909 L52.5399273,39.0308727 Z M50.1170182,38.8737818 L50.5533818,37.7654182 C50.8752,36.9461455 51.5133818,36.7356 52.4461091,37.1032364 C53.0013818,37.3225091 53.3461091,37.6377818 53.4159273,38.1734182 L55.9075636,38.2934182 L55.6206545,39.0243273 L53.3112,38.8585091 L53.1486545,39.2708727 L55.2050182,40.0803273 L54.9333818,40.7708727 L50.1170182,38.8737818 Z" id="Fill-178" fill="#8CC63F" fill-rule="nonzero"></path>
                <path d="M53.2222909,33.8895273 L53.0532,34.6117091 L52.8906545,34.5735273 C52.5590182,34.4960727 52.2502909,34.5735273 52.1641091,34.9411636 C52.0713818,35.3371636 52.3681091,35.5029818 52.7008364,35.5804364 C53.0892,35.6720727 53.2321091,35.6677091 53.4688364,35.3273455 L53.8168364,34.8266182 C54.2052,34.2462545 54.6372,34.2200727 55.3724727,34.3924364 C56.2222909,34.5909818 56.7786545,35.0480727 56.5604727,35.9818909 C56.3968364,36.6833455 55.7564727,37.0924364 55.0779273,36.9331636 L54.8095636,36.8709818 L54.9775636,36.1488 L55.2033818,36.2022545 C55.4652,36.2633455 55.7532,36.1815273 55.8382909,35.8138909 C55.9528364,35.3251636 55.6713818,35.2226182 55.2110182,35.1146182 C54.6742909,34.9902545 54.5739273,35.0338909 54.3502909,35.3546182 L54.0175636,35.8215273 C53.6172,36.3833455 53.1688364,36.4509818 52.5393818,36.3037091 C51.7757455,36.1258909 51.2553818,35.5717091 51.4495636,34.7437091 C51.6175636,34.0226182 52.3102909,33.6768 52.8688364,33.8077091 L53.2222909,33.8895273 Z" id="Fill-179" fill="#8CC63F" fill-rule="nonzero"></path>
                <polygon id="Fill-180" fill="#8CC63F" fill-rule="nonzero" points="52.2709091 32.8540364 52.7705455 32.1864 51.9294545 32.1373091 51.9730909 31.6736727 52.8087273 31.7816727 52.4410909 31.0311273 52.8370909 30.8642182 53.1741818 31.6256727 53.64 30.9394909 54.0043636 31.1784 53.5036364 31.8460364 54.3458182 31.8951273 54.3021818 32.3587636 53.4654545 32.2507636 53.8330909 33.0013091 53.4305455 33.1671273 53.1010909 32.4067636 52.6287273 33.0929455"></polygon>
                <polygon id="Fill-181" fill="#8CC63F" fill-rule="nonzero" points="31.7834182 46.0962545 32.3081455 47.7195273 30.9248727 46.7169818 29.5459636 47.7173455 30.0728727 46.0951636 28.6852364 45.0860727 30.4001455 45.0871636 30.9292364 43.4595273 31.4572364 45.0915273 33.1656 45.0937091"></polygon>
                <polygon id="Fill-182" fill="#8CC63F" fill-rule="nonzero" points="43.9330909 41.2947273 44.4578182 42.918 43.0745455 41.9154545 41.6956364 42.9158182 42.2225455 41.2936364 40.8349091 40.2845455 42.5498182 40.2856364 43.0789091 38.658 43.6069091 40.29 45.3152727 40.2921818"></polygon>
                <polygon id="Fill-183" fill="#8CC63F" fill-rule="nonzero" points="25.1164364 45.1832727 25.6411636 46.8076364 24.2578909 45.8050909 22.8789818 46.8054545 23.4058909 45.1832727 22.0182545 44.1741818 23.7331636 44.1752727 24.2622545 42.5476364 24.7902545 44.1796364 26.4986182 44.1818182"></polygon>
                <polygon id="Fill-184" fill="#8CC63F" fill-rule="nonzero" points="38.2893818 45.1832727 38.8141091 46.8076364 37.4319273 45.8050909 36.0519273 46.8054545 36.5788364 45.1832727 35.1912 44.1741818 36.9061091 44.1752727 37.4362909 42.5476364 37.9632 44.1796364 39.6715636 44.1818182"></polygon>
                <polygon id="Fill-185" fill="#8CC63F" fill-rule="nonzero" points="19.6337455 41.5131273 20.1584727 43.1364 18.7752 42.1349455 17.3962909 43.1342182 17.9232 41.5120364 16.5355636 40.5029455 18.2504727 40.5040364 18.7795636 38.8764 19.3075636 40.5084 21.0159273 40.5116727"></polygon>
            </g>
        </g>
    </g>
</svg>